<svg width="120" height="25" viewBox="0 0 120 25" fill="#f0f0f0" xmlns="http://www.w3.org/2000/svg">
<path d="M2.18359 17.1055C3.32943 17.5612 4.2474 17.9128 4.9375 18.1602C5.6276 18.4076 6.38281 18.6224 7.20312 18.8047C8.03646 18.987 8.86328 19.0781 9.68359 19.0781C10.0482 19.0781 10.3086 19.0456 10.4648 18.9805C10.5039 18.9284 10.5365 18.8503 10.5625 18.7461C10.6016 18.6289 10.6211 18.5117 10.6211 18.3945C10.6211 18.1341 10.4714 17.9193 10.1719 17.75C9.70312 17.4896 8.86979 17.0794 7.67188 16.5195C6.03125 15.7383 4.72917 15.0417 3.76562 14.4297C2.8151 13.8177 2.00781 13.0039 1.34375 11.9883C0.692708 10.9727 0.367188 9.69661 0.367188 8.16016C0.367188 5.95964 1.02474 4.19531 2.33984 2.86719C3.65495 1.52604 5.73828 0.855469 8.58984 0.855469C11.9883 0.855469 14.6315 1.29818 16.5195 2.18359C16.6107 2.5612 16.6562 3.03646 16.6562 3.60938C16.6562 4.70312 16.487 5.82292 16.1484 6.96875C15.8099 8.10156 15.3672 8.94141 14.8203 9.48828C14.0781 9.24089 13.0299 8.84375 11.6758 8.29688C10.6862 7.90625 9.89844 7.60677 9.3125 7.39844C8.73958 7.17708 8.21224 7.02083 7.73047 6.92969C7.47005 6.99479 7.26172 7.15104 7.10547 7.39844C6.94922 7.63281 6.87109 7.91276 6.87109 8.23828C6.87109 8.52474 6.95573 8.76562 7.125 8.96094C7.29427 9.15625 7.48307 9.3125 7.69141 9.42969C7.91276 9.53385 8.22526 9.67708 8.62891 9.85938C8.83724 9.95052 9.03255 10.0352 9.21484 10.1133C9.39714 10.1784 9.56641 10.2435 9.72266 10.3086C10.7383 10.7383 11.5391 11.0898 12.125 11.3633C12.7109 11.6367 13.2773 11.9622 13.8242 12.3398C14.8268 13.0299 15.6146 13.8177 16.1875 14.7031C16.7604 15.5885 17.0469 16.5586 17.0469 17.6133C17.0469 19.0716 16.6302 20.3346 15.7969 21.4023C14.9766 22.457 13.9219 23.2253 12.6328 23.707C11.9557 23.9544 11.2135 24.1302 10.4062 24.2344C9.61198 24.3516 8.68099 24.4102 7.61328 24.4102C6.35026 24.4102 5.04818 24.1693 3.70703 23.6875C2.37891 23.1927 1.36328 22.3724 0.660156 21.2266C0.673177 20.4323 0.777344 19.7422 0.972656 19.1562C1.18099 18.5573 1.58464 17.8737 2.18359 17.1055ZM25.5039 11.1289C26.2721 11.1289 27.1185 11.207 28.043 11.3633C28.9805 11.5195 29.8398 11.7083 30.6211 11.9297V11.3242C30.6211 10.9206 30.6081 10.4714 30.582 9.97656C30.569 9.48177 30.543 9.15625 30.5039 9C30.3867 8.77865 30.0482 8.55078 29.4883 8.31641C28.9414 8.08203 28.043 7.96484 26.793 7.96484C26.0247 7.96484 25.2305 8.0625 24.4102 8.25781C23.6029 8.4401 22.7044 8.6875 21.7148 9C21.181 8.11458 20.7513 7.27474 20.4258 6.48047C20.1133 5.67318 19.957 4.86589 19.957 4.05859C19.957 3.8112 19.9766 3.5638 20.0156 3.31641C22.125 1.67578 24.8529 0.855469 28.1992 0.855469C30.0482 0.855469 31.6888 1.0638 33.1211 1.48047C34.5534 1.89714 35.7318 2.70443 36.6562 3.90234C37.5807 5.10026 38.043 6.79948 38.043 9C38.043 11.1484 37.7891 13.2318 37.2812 15.25C36.7865 17.2552 36.5326 18.2773 36.5195 18.3164L39.3516 17.1055C39.7292 17.5091 40.0612 18.0039 40.3477 18.5898C40.6471 19.1628 40.8359 19.8268 40.9141 20.582C40.7318 20.9727 40.3346 21.474 39.7227 22.0859C39.1107 22.6849 38.362 23.2188 37.4766 23.6875C36.5911 24.1562 35.6667 24.3906 34.7031 24.3906C33.6224 24.3906 32.8021 24.0716 32.2422 23.4336C31.6953 22.7956 31.4219 21.9688 31.4219 20.9531C31.4219 20.3802 31.5065 19.8008 31.6758 19.2148L31.0898 19.0391C30.7253 21.0964 29.9505 22.5026 28.7656 23.2578C27.5807 24.013 26.2721 24.3906 24.8398 24.3906C23.9023 24.3906 22.9974 24.1302 22.125 23.6094C21.2526 23.0755 20.543 22.3073 19.9961 21.3047C19.4492 20.2891 19.1758 19.1042 19.1758 17.75C19.1758 15.5885 19.7161 13.9479 20.7969 12.8281C21.8776 11.6953 23.4466 11.1289 25.5039 11.1289ZM27.7305 18.5703C28.056 18.5052 28.4401 18.3229 28.8828 18.0234C29.3385 17.724 29.7422 17.3659 30.0938 16.9492C30.4453 16.5326 30.6536 16.1354 30.7188 15.7578L30.6016 15.2891C29.9115 15.1979 29.1758 15.1523 28.3945 15.1523C27.7305 15.1523 27.2747 15.2044 27.0273 15.3086C26.6107 15.7773 26.4023 16.2982 26.4023 16.8711C26.4023 17.2878 26.5065 17.6654 26.7148 18.0039C26.9362 18.3424 27.2747 18.5312 27.7305 18.5703ZM43.7266 17.2031C43.7266 15.0807 43.7526 13.4792 43.8047 12.3984C43.8568 11.3047 43.9935 9.70312 44.2148 7.59375L41.9688 7.30078C41.6953 6.45443 41.513 5.69922 41.4219 5.03516C41.3438 4.37109 41.3047 3.51172 41.3047 2.45703C41.513 2.27474 41.8581 2.0599 42.3398 1.8125C42.8346 1.55208 43.4141 1.33073 44.0781 1.14844C44.7552 0.953125 45.4388 0.855469 46.1289 0.855469C47.7044 0.855469 48.8177 1.19401 49.4688 1.87109C50.1328 2.54818 50.4648 3.5638 50.4648 4.91797C50.4648 5.67318 50.3542 6.69531 50.1328 7.98438C49.7682 10.0547 49.5859 11.1419 49.5859 11.2461C49.5859 11.3112 49.6315 11.3763 49.7227 11.4414C49.8138 11.4935 49.9115 11.5195 50.0156 11.5195C50.1328 11.5195 50.2109 11.474 50.25 11.3828C50.237 11.4349 50.3867 10.7773 50.6992 9.41016C51.0768 7.61328 51.4609 6.14844 51.8516 5.01562C52.2552 3.88281 52.8932 2.91276 53.7656 2.10547C54.638 1.29818 55.8229 0.894531 57.3203 0.894531C59.1693 0.894531 60.5039 1.42839 61.3242 2.49609C62.1445 3.55078 62.5547 4.95703 62.5547 6.71484C62.5547 8.10807 62.3203 9.65755 61.8516 11.3633C61.8516 11.4284 61.8971 11.4935 61.9883 11.5586C62.0794 11.6107 62.1771 11.6367 62.2812 11.6367C62.3984 11.6367 62.4766 11.5911 62.5156 11.5L62.7891 10.4062C63.2578 8.47917 63.7201 6.8776 64.1758 5.60156C64.6445 4.32552 65.3411 3.22526 66.2656 2.30078C67.2031 1.36328 68.4206 0.894531 69.918 0.894531C71.8841 0.894531 73.2969 1.52604 74.1562 2.78906C75.0286 4.05208 75.4648 5.64062 75.4648 7.55469C75.4648 8.90885 75.3346 10.2695 75.0742 11.6367C74.8268 13.0039 74.5599 14.1497 74.2734 15.0742C74 15.9987 73.6615 17.0664 73.2578 18.2773L73.2969 18.3164L76.1875 17.1055C77.2031 17.9779 77.7956 19.1367 77.9648 20.582C77.9648 20.6732 77.6719 21.0508 77.0859 21.7148C76.5 22.3659 75.7253 22.9779 74.7617 23.5508C73.8112 24.1107 72.7174 24.3906 71.4805 24.3906C70.2435 24.3906 69.2344 24.0586 68.4531 23.3945C67.6719 22.7305 67.2812 21.5977 67.2812 19.9961C67.2812 18.2122 67.3138 16.3828 67.3789 14.5078C67.457 12.6198 67.5677 10.9271 67.7109 9.42969C67.4896 9.2474 67.1836 9.14974 66.793 9.13672C66.4023 9.51432 65.9141 10.3411 65.3281 11.6172C64.7422 12.8802 64.2018 14.2344 63.707 15.6797C63.2122 17.112 62.8997 18.2318 62.7695 19.0391C62.9518 20.3151 63.2318 21.5781 63.6094 22.8281C63.375 23.2708 62.8932 23.6419 62.1641 23.9414C61.4349 24.2409 60.5365 24.3906 59.4688 24.3906C58.5052 24.3906 57.75 24.3125 57.2031 24.1562C56.6562 24 56.2786 23.8372 56.0703 23.668C55.875 23.4987 55.7773 23.388 55.7773 23.3359C55.7643 23.2188 55.7318 22.9128 55.6797 22.418C55.6276 21.9102 55.5755 21.207 55.5234 20.3086C55.4714 19.3971 55.4453 18.362 55.4453 17.2031C55.4453 16.0964 55.5299 14.7096 55.6992 13.043C55.7122 12.8346 55.7513 12.3398 55.8164 11.5586C55.8815 10.7773 55.9141 10.0677 55.9141 9.42969C55.6927 9.2474 55.3867 9.14974 54.9961 9.13672C54.7747 9.30599 54.1562 10.3867 53.1406 12.3789C52.125 14.3711 51.4479 15.7773 51.1094 16.5977C51.0833 16.7799 51.0703 16.9557 51.0703 17.125C51.0703 17.776 51.168 18.6549 51.3633 19.7617C51.5586 20.8555 51.7995 21.8776 52.0859 22.8281C51.8516 23.2708 51.3698 23.6419 50.6406 23.9414C49.9115 24.2409 49.013 24.3906 47.9453 24.3906C46.9818 24.3906 46.207 24.3125 45.6211 24.1562C45.0482 24 44.6445 23.8372 44.4102 23.668C44.1758 23.4857 44.0586 23.375 44.0586 23.3359C44.0456 23.2188 44.013 22.9128 43.9609 22.418C43.9089 21.9102 43.8568 21.207 43.8047 20.3086C43.7526 19.3971 43.7266 18.362 43.7266 17.2031ZM79.2148 12.6523C79.2148 10.3997 79.5924 8.38802 80.3477 6.61719C81.1029 4.84635 82.2682 3.44661 83.8438 2.41797C85.4323 1.3763 87.4115 0.855469 89.7812 0.855469C91.0182 0.855469 92.2552 1.00521 93.4922 1.30469C94.7292 1.59115 95.7773 2.07292 96.6367 2.75C97.431 3.38802 98.0039 4.23438 98.3555 5.28906C98.7201 6.33073 98.9023 7.48958 98.9023 8.76562C98.9023 9.61198 98.8307 10.4779 98.6875 11.3633C98.5312 11.6237 98.2253 11.9688 97.7695 12.3984C97.3138 12.8151 96.7799 13.2253 96.168 13.6289C95.556 14.0326 94.9635 14.3451 94.3906 14.5664C93.8438 14.6055 93.2773 14.625 92.6914 14.625C91.6628 14.625 90.6211 14.5794 89.5664 14.4883C88.5117 14.3971 87.5872 14.293 86.793 14.1758C86.8971 15.2826 87.2357 16.2461 87.8086 17.0664C88.3815 17.8867 89.293 18.2969 90.543 18.2969C90.6602 18.2969 90.849 18.2839 91.1094 18.2578C91.9036 18.1797 92.8281 17.9714 93.8828 17.6328C94.9505 17.2812 96.0117 16.8776 97.0664 16.4219C97.5612 16.9167 97.9258 17.4115 98.1602 17.9062C98.3945 18.401 98.5573 19.1107 98.6484 20.0352C98.2448 20.5039 97.5872 21.0768 96.6758 21.7539C95.7773 22.431 94.6771 23.043 93.375 23.5898C92.0729 24.1237 90.7122 24.3906 89.293 24.3906C87.1576 24.3906 85.3281 23.8763 83.8047 22.8477C82.2943 21.806 81.1484 20.3997 80.3672 18.6289C79.599 16.8451 79.2148 14.8529 79.2148 12.6523ZM91.793 8.16016C91.6107 7.96484 91.3047 7.8151 90.875 7.71094C90.4453 7.59375 89.9961 7.53516 89.5273 7.53516C89.1497 7.53516 88.7656 7.56771 88.375 7.63281C87.9974 7.69792 87.7695 7.76953 87.6914 7.84766C87.2487 8.72005 86.9688 9.70964 86.8516 10.8164L92.0664 10.3086L91.793 8.16016ZM103.473 18.7656C103.473 18.2057 103.486 16.832 103.512 14.6445C103.551 10.3477 103.57 7.9974 103.57 7.59375L101.773 7.30078C101.526 6.55859 101.35 5.86198 101.246 5.21094C101.142 4.5599 101.09 3.90234 101.09 3.23828C101.09 2.96484 101.096 2.75651 101.109 2.61328C101.331 2.41797 101.676 2.18359 102.145 1.91016C102.613 1.63672 103.167 1.39583 103.805 1.1875C104.443 0.966146 105.094 0.855469 105.758 0.855469C107.307 0.855469 108.427 1.20052 109.117 1.89062C109.82 2.58073 110.172 3.58984 110.172 4.91797C110.172 5.72526 110.068 6.76042 109.859 8.02344C109.664 9.27344 109.462 10.1654 109.254 10.6992L109.957 10.8164L111.129 6.40234C111.65 4.41016 112.301 2.99089 113.082 2.14453C113.863 1.28516 114.742 0.855469 115.719 0.855469C116.357 0.855469 116.988 0.953125 117.613 1.14844C118.251 1.34375 118.74 1.58464 119.078 1.87109C119.443 2.67839 119.625 3.7526 119.625 5.09375C119.625 6.03125 119.534 6.96224 119.352 7.88672C119.169 8.79818 118.935 9.53385 118.648 10.0938L114.547 9.54688C113.714 10.4323 112.828 11.6628 111.891 13.2383C110.953 14.8008 110.204 16.2396 109.645 17.5547L109.625 18.5703L113.414 17.6719C114.052 18.6484 114.423 19.8073 114.527 21.1484C114.527 21.2266 114.234 21.5456 113.648 22.1055C113.062 22.6654 112.288 23.1862 111.324 23.668C110.374 24.1367 109.28 24.3711 108.043 24.3711C106.767 24.3711 105.699 24.0326 104.84 23.3555C103.993 22.6654 103.544 21.5065 103.492 19.8789C103.479 19.6836 103.473 19.3125 103.473 18.7656Z" fill="#f0f0f0"/>
</svg>
